<svg xmlns="http://www.w3.org/2000/svg" viewBox="0 0 512 512">
  <defs>
    <linearGradient id="grad1" x1="0%" y1="0%" x2="100%" y2="100%">
      <stop offset="0%" style="stop-color:#4f46e5;stop-opacity:1" />
      <stop offset="100%" style="stop-color:#9333ea;stop-opacity:1" />
    </linearGradient>
    <filter id="shadow" x="-20%" y="-20%" width="140%" height="140%">
      <feDropShadow dx="0" dy="4" stdDeviation="8" flood-color="#000000" flood-opacity="0.3" />
    </filter>
  </defs>
  
  <!-- Main Chat Bubble Shape -->
  <path d="M256 32C114.6 32 0 125.1 0 240c0 49.6 21.4 95 57 130.7C44.5 421.1 2.7 466 2.2 466.5c-2.2 2.3-2.8 5.7-1.5 8.7S4.8 480 8 480c66.3 0 116-31.8 140.6-51.4 32.7 12.3 69 19.4 107.4 19.4 141.4 0 256-93.1 256-208S397.4 32 256 32z" fill="url(#grad1)" filter="url(#shadow)" />

  <!-- "S" / Swap Icon inside -->
  <path d="M360 216c0-13.3-10.7-24-24-24h-134.1l20.7-20.7c9.4-9.4 9.4-24.6 0-33.9s-24.6-9.4-33.9 0l-64 64c-9.4 9.4-9.4 24.6 0 33.9l64 64c9.4 9.4 24.6 9.4 33.9 0s9.4-24.6 0-33.9l-20.7-20.7H336c13.3 0 24-10.7 24-24zm-144 80c0 13.3 10.7 24 24 24h134.1l-20.7 20.7c-9.4 9.4-9.4 24.6 0 33.9 4.7 4.7 10.8 7 17 7s12.3-2.3 17-7l64-64c9.4-9.4 9.4-24.6 0-33.9l-64-64c-9.4-9.4-24.6-9.4-33.9 0s-9.4 24.6 0 33.9l20.7 20.7H240c-13.3 0-24 10.7-24 24z" fill="white" />
</svg>
